# xmcd
#
# Track frame offsets: 
#        150
#        11281
#        23315
#        37787
#        56893
#        73321
#        86334
#        99636
#        118170
#        137331
#        158771
#        180062
#
# Disc length: 2666 seconds
#
# Revision: 1
# Processed by: cddbd v1.5.1PL0 Copyright (c) Steve Scherf et al.
# Submitted via: ExactAudioCopy v0.95a5
#
DISCID=840a680c
DTITLE=Blue Mountain - Tonight It's Now Or Never [live] [Disc 1]
DYEAR=2002
DGENRE=Rock
TTITLE0=Young And Tender Ladies
TTITLE1=Bloody 98
TTITLE2=Lakeside
TTITLE3=Banks Of The Ponchartrain
TTITLE4=Myrna Lee
TTITLE5=Jimmy Carter
TTITLE6=Riley And Spencer
TTITLE7=Rain And Snow
TTITLE8=Black Dog
TTITLE9=Poppa
TTITLE10=Let's Go Runnin'
TTITLE11=Judgement Day
EXTD=
EXTT0=
EXTT1=
EXTT2=
EXTT3=
EXTT4=
EXTT5=
EXTT6=
EXTT7=
EXTT8=
EXTT9=
EXTT10=
EXTT11=
PLAYORDER=
